<mxfile host="app.diagrams.net" modified="2021-04-08T18:49:12.003Z" agent="5.0 (Windows NT 10.0; Win64; x64) AppleWebKit/537.36 (KHTML, like Gecko) Chrome/87.0.4280.141 Safari/537.36 OPR/73.0.3856.424" etag="aSZkQP0jAMQUi7dEfJ_0" version="14.5.8" type="github">
  <diagram id="FMbho8kLkQ0YY_Z4Ix5w" name="Page-1">
    <mxGraphModel dx="2302" dy="1273" grid="1" gridSize="10" guides="1" tooltips="1" connect="1" arrows="1" fold="1" page="1" pageScale="1" pageWidth="3200" pageHeight="1800" math="0" shadow="0">
      <root>
        <mxCell id="0" />
        <mxCell id="1" parent="0" />
        <mxCell id="muSHpRUxgRySuF4JChZZ-1" value="&lt;h1&gt;Background, just colour.&lt;/h1&gt;" style="rounded=0;whiteSpace=wrap;html=1;fillColor=#dae8fc;strokeColor=#6c8ebf;" vertex="1" parent="1">
          <mxGeometry x="90" y="80" width="1920" height="1080" as="geometry" />
        </mxCell>
        <mxCell id="muSHpRUxgRySuF4JChZZ-3" value="" style="rounded=0;whiteSpace=wrap;html=1;" vertex="1" parent="1">
          <mxGeometry x="755" y="475" width="590" height="290" as="geometry" />
        </mxCell>
        <mxCell id="muSHpRUxgRySuF4JChZZ-4" value="&lt;font style=&quot;font-size: 48px&quot;&gt;Search Bar (location)&lt;/font&gt;" style="rounded=1;whiteSpace=wrap;html=1;fillColor=#d5e8d4;strokeColor=#82b366;" vertex="1" parent="1">
          <mxGeometry x="780" y="500" width="540" height="70" as="geometry" />
        </mxCell>
        <mxCell id="muSHpRUxgRySuF4JChZZ-5" value="Search Button" style="rounded=1;whiteSpace=wrap;html=1;" vertex="1" parent="1">
          <mxGeometry x="990" y="680" width="120" height="60" as="geometry" />
        </mxCell>
        <mxCell id="muSHpRUxgRySuF4JChZZ-8" value="&lt;u&gt;&lt;b&gt;Filter Your Search (checkboxes?)&lt;/b&gt;&lt;/u&gt;&lt;br&gt;- Restaurants&lt;br&gt;- Arts/Entertainment&lt;br&gt;- Outdoor/Recreation" style="rounded=0;whiteSpace=wrap;html=1;" vertex="1" parent="1">
          <mxGeometry x="780" y="580" width="540" height="70" as="geometry" />
        </mxCell>
        <mxCell id="muSHpRUxgRySuF4JChZZ-10" value="&lt;font style=&quot;font-size: 72px&quot;&gt;Background = rotating images of city skylines, people in bars, highways etc.&lt;/font&gt;" style="text;html=1;strokeColor=none;fillColor=none;align=center;verticalAlign=middle;whiteSpace=wrap;rounded=0;" vertex="1" parent="1">
          <mxGeometry x="230" y="910" width="1700" height="250" as="geometry" />
        </mxCell>
        <mxCell id="muSHpRUxgRySuF4JChZZ-14" value="" style="rounded=0;whiteSpace=wrap;html=1;fillColor=#f8cecc;strokeColor=#b85450;" vertex="1" parent="1">
          <mxGeometry x="90" y="80" width="1920" height="110" as="geometry" />
        </mxCell>
        <mxCell id="muSHpRUxgRySuF4JChZZ-15" value="&lt;font style=&quot;font-size: 72px&quot;&gt;&amp;lt;h1&amp;gt; Title here!&lt;/font&gt;" style="text;html=1;strokeColor=none;fillColor=none;align=center;verticalAlign=middle;whiteSpace=wrap;rounded=0;" vertex="1" parent="1">
          <mxGeometry x="670" y="90" width="730" height="90" as="geometry" />
        </mxCell>
      </root>
    </mxGraphModel>
  </diagram>
</mxfile>
